# xmcd
#
# Track frame offsets: 
#        150
#        18477
#        41953
#
# Disc length: 836 seconds
#
# Revision: 0
# Processed by: cddbd v1.5.2PL0 Copyright (c) Steve Scherf et al.
# Submitted via: ExactAudioCopyFreeDBPlugin 1.0
#
DISCID=21034203
DTITLE=Suara - 不安定な神様
DYEAR=2015
DGENRE=JPop
TTITLE0=不安定な神様
TTITLE1=ユメカウツツカ
TTITLE2=花鳥風月
EXTD=
EXTT0=
EXTT1=
EXTT2=
PLAYORDER=
